<?xml version="1.0" encoding="utf-8"?>
<!-- Generator: Adobe Illustrator 16.0.0, SVG Export Plug-In . SVG Version: 6.00 Build 0)  -->
<!DOCTYPE svg PUBLIC "-//W3C//DTD SVG 1.1//EN" "http://www.w3.org/Graphics/SVG/1.1/DTD/svg11.dtd">
<svg version="1.1" id="USERS_LABELS_SET_BY_RedKoala"
	 xmlns="http://www.w3.org/2000/svg" xmlns:xlink="http://www.w3.org/1999/xlink" x="0px" y="0px" width="30px" height="20.676px"
	 viewBox="0 0 30 20.676" enable-background="new 0 0 30 20.676" xml:space="preserve">
<g id="COUPLE_1_2_">
	<g id="COUPLE_1">
		<path id="woman_4_" fill="#FFFFFF" d="M0.005,19.468C0.005,19.474,0,20.503,0,20.676h18.555c0-0.173-0.004-1.202-0.004-1.208
			c0.004-3.515-7.346-2.126-7.373-6.205c-0.001-0.203,0.033-0.378,0.095-0.54c0.55,0.104,1.152,0.176,1.772,0.176l0,0
			c1.459,0,2.65-0.399,3.54-1.188c0.042-0.036,0.063-0.092,0.06-0.147c-0.004-0.057-0.033-0.107-0.08-0.139
			c-1.004-0.67-1.213-2.383-1.434-4.196c-0.338-2.774-0.721-5.919-3.878-6.912C10.709,0.106,10.146,0,9.579,0
			C9.475,0,9.373,0.003,9.283,0.006C9.182,0.003,9.08,0,8.976,0c-0.567,0-1.13,0.106-1.665,0.312
			C4.144,1.31,3.761,4.454,3.423,7.228c-0.221,1.814-0.43,3.527-1.434,4.197c-0.046,0.031-0.076,0.082-0.079,0.139
			c-0.003,0.056,0.019,0.111,0.06,0.147c0.889,0.788,2.081,1.188,3.54,1.188c0.62,0,1.222-0.071,1.772-0.176
			c0.062,0.162,0.096,0.337,0.095,0.54C7.351,17.342,0,15.953,0.005,19.468z"/>
		<path id="shadow_40_" fill="#FFFFFF" d="M18.55,19.468c0.003-2.51-3.743-2.52-5.896-3.805c-2.498,0.35-4.878,0.378-6.904,0.086
			c-2.172,1.201-5.749,1.267-5.746,3.719C0.005,19.474,0,20.503,0,20.676h18.555C18.555,20.503,18.55,19.474,18.55,19.468z"/>
		<path id="man_3_" fill="#FFFFFF" d="M29.998,18.82c0.001-0.005-0.001-0.008,0-0.013c0-0.01,0.002-0.021,0-0.027
			c0-0.005,0-0.01,0-0.015c0.004-3.099-6.719-1.17-6.743-4.767c-0.01-1.531,2.351-1.148,2.351-6.604
			c0.003-0.239-0.005-0.472-0.024-0.696c-0.064-0.744-0.25-1.403-0.53-1.966c-0.716-1.438-2.052-2.244-3.555-2.244h0
			c-0.003,0-0.006,0-0.009,0s-0.005,0-0.008,0h0c-2.092,0-3.857,1.562-4.085,4.21c-0.019,0.225-0.027,0.457-0.023,0.696
			c0,5.455,2.361,5.072,2.351,6.604c-0.008,1.289-0.877,1.869-1.989,2.224c0.167,0.088,0.331,0.182,0.486,0.283
			c1.393,0.909,1.685,2.112,1.684,2.96l0,0.06c0.001,0.247,0.004,1,0.004,1.15H30c0-0.152,0-0.577,0-1.769
			C30,18.878,29.999,18.849,29.998,18.82z"/>
		<path id="shadow_39_" fill="#FFFFFF" d="M30,18.907c0-0.029-0.001-0.059-0.002-0.087c0.001-0.005-0.001-0.008,0-0.013
			c0-0.01,0.002-0.021,0-0.027c0-0.005,0-0.01,0-0.015c0.004-3.099-6.719-1.17-6.743-4.767c-0.007-1.001,1-1.185,1.698-2.715
			c-1.627,1.03-3.404,1.891-5.237,2.58c0.004,0.044,0.006,0.088,0.005,0.135c-0.008,1.289-0.877,1.869-1.989,2.224
			c0.167,0.088,0.331,0.182,0.486,0.283c1.393,0.909,1.685,2.112,1.684,2.96l0,0.06c0.001,0.247,0.004,1,0.004,1.15H30
			C30,20.523,30,20.099,30,18.907z"/>
	</g>
</g>
</svg>
