<?xml version="1.0" encoding="utf-8"?>
<!-- Generator: Adobe Illustrator 16.0.0, SVG Export Plug-In . SVG Version: 6.00 Build 0)  -->
<!DOCTYPE svg PUBLIC "-//W3C//DTD SVG 1.1//EN" "http://www.w3.org/Graphics/SVG/1.1/DTD/svg11.dtd">
<svg version="1.1" id="Layer_1" xmlns="http://www.w3.org/2000/svg" xmlns:xlink="http://www.w3.org/1999/xlink" x="0px" y="0px"
	 width="35px" height="35.001px" viewBox="5.75 5.75 35 35.001" enable-background="new 5.75 5.75 35 35.001" xml:space="preserve">
<path fill="#989898" d="M35.009,40.752H11.491c-3.165,0-5.74-2.576-5.74-5.742V11.492c0-3.166,2.575-5.741,5.74-5.741h23.519
	c3.165,0,5.741,2.576,5.741,5.741V35.01C40.75,38.176,38.176,40.752,35.009,40.752z M11.491,7.256c-2.335,0-4.235,1.899-4.235,4.236
	V35.01c0,2.336,1.9,4.236,4.235,4.236h23.519c2.336,0,4.235-1.9,4.235-4.236V11.492c0-2.336-1.899-4.236-4.235-4.236H11.491z"/>
<path fill="#989898" d="M31.488,19.792c0.007,0.155,0.012,0.31,0.012,0.467c0,4.772-3.633,10.274-10.275,10.274
	c-2.039,0-3.938-0.599-5.536-1.622c0.282,0.034,0.57,0.05,0.861,0.05c1.692,0,3.249-0.576,4.485-1.546
	c-1.581-0.029-2.915-1.075-3.374-2.508c0.221,0.043,0.446,0.066,0.679,0.066c0.33,0,0.648-0.046,0.951-0.128
	c-1.651-0.333-2.896-1.792-2.896-3.542c0-0.016,0-0.031,0-0.046c0.486,0.27,1.044,0.432,1.636,0.453
	c-0.97-0.646-1.606-1.754-1.606-3.007c0-0.661,0.177-1.28,0.489-1.813c1.781,2.184,4.442,3.621,7.444,3.772
	c-0.062-0.266-0.094-0.54-0.094-0.824c0-1.994,1.616-3.611,3.61-3.611c1.039,0,1.979,0.439,2.636,1.14
	c0.823-0.16,1.596-0.46,2.294-0.875c-0.27,0.842-0.843,1.552-1.588,1.998c0.73-0.086,1.428-0.282,2.074-0.568
	C32.806,18.647,32.193,19.283,31.488,19.792z"/>
</svg>
