<?xml version="1.0" encoding="utf-8"?>
<!-- Generator: Adobe Illustrator 16.0.0, SVG Export Plug-In . SVG Version: 6.00 Build 0)  -->
<!DOCTYPE svg PUBLIC "-//W3C//DTD SVG 1.1//EN" "http://www.w3.org/Graphics/SVG/1.1/DTD/svg11.dtd">
<svg version="1.1" id="Layer_1" xmlns="http://www.w3.org/2000/svg" xmlns:xlink="http://www.w3.org/1999/xlink" x="0px" y="0px"
	 width="35px" height="35px" viewBox="5.751 5.751 35 35" enable-background="new 5.751 5.751 35 35" xml:space="preserve">
<path fill="#989898" d="M35.009,40.751H11.492c-3.166,0-5.741-2.575-5.741-5.741V11.492c0-3.166,2.575-5.741,5.741-5.741h23.517
	c3.166,0,5.742,2.576,5.742,5.741V35.01C40.75,38.176,38.175,40.751,35.009,40.751z M11.492,7.256c-2.335,0-4.236,1.9-4.236,4.236
	V35.01c0,2.336,1.9,4.235,4.236,4.235h23.517c2.336,0,4.236-1.899,4.236-4.235V11.492c-0.001-2.336-1.9-4.236-4.236-4.236H11.492z"
	/>
<g>
	<g>
		<g>
			<path fill="#989898" d="M15.171,20.45h3.465v11.143h-3.465V20.45z M16.902,14.909c1.107,0,2.007,0.901,2.007,2.008
				c0,1.109-0.9,2.008-2.007,2.008c-1.11,0-2.007-0.898-2.007-2.008C14.895,15.811,15.792,14.909,16.902,14.909"/>
			<path fill="#989898" d="M20.808,20.45h3.321v1.521h0.048c0.463-0.875,1.593-1.799,3.277-1.799c3.505,0,4.151,2.307,4.151,5.31
				v6.11h-3.46v-5.418c0-1.293-0.024-2.955-1.8-2.955c-1.802,0-2.077,1.408-2.077,2.861v5.512h-3.462L20.808,20.45L20.808,20.45z"/>
		</g>
	</g>
</g>
</svg>
