<?xml version="1.0" encoding="utf-8"?>
<!-- Generator: Adobe Illustrator 16.0.0, SVG Export Plug-In . SVG Version: 6.00 Build 0)  -->
<!DOCTYPE svg PUBLIC "-//W3C//DTD SVG 1.1//EN" "http://www.w3.org/Graphics/SVG/1.1/DTD/svg11.dtd">
<svg version="1.1" id="Layer_1" xmlns="http://www.w3.org/2000/svg" xmlns:xlink="http://www.w3.org/1999/xlink" x="0px" y="0px"
	 width="35px" height="35px" viewBox="5.805 5.751 35 35" enable-background="new 5.805 5.751 35 35" xml:space="preserve">
<path fill="#989898" d="M35.064,40.751H11.546c-3.166,0-5.741-2.575-5.741-5.741V11.492c0-3.166,2.576-5.741,5.741-5.741h23.518
	c3.165,0,5.741,2.576,5.741,5.741V35.01C40.805,38.176,38.229,40.751,35.064,40.751z M11.546,7.256
	c-2.335,0-4.236,1.899-4.236,4.236V35.01c0,2.336,1.9,4.236,4.236,4.236h23.518c2.335,0,4.236-1.9,4.236-4.236V11.492
	c0-2.336-1.901-4.236-4.236-4.236H11.546z"/>
<path fill="#989898" d="M21.192,31.271v-8.336h-2.205v-3.002h2.205c0,0,0-1.23,0-2.563c0-2.014,1.301-3.865,4.301-3.865
	c1.216,0,2.114,0.117,2.114,0.117l-0.07,2.804c0,0-0.916-0.009-1.916-0.009c-1.082,0-1.255,0.498-1.255,1.326
	c0,0.654,0-1.395,0,2.191h3.258l-0.143,3.002h-3.115v8.336H21.192z"/>
</svg>
