<?xml version="1.0" encoding="utf-8"?>
<!-- Generator: Adobe Illustrator 16.0.0, SVG Export Plug-In . SVG Version: 6.00 Build 0)  -->
<!DOCTYPE svg PUBLIC "-//W3C//DTD SVG 1.1//EN" "http://www.w3.org/Graphics/SVG/1.1/DTD/svg11.dtd">
<svg version="1.1" id="Layer_1" xmlns="http://www.w3.org/2000/svg" xmlns:xlink="http://www.w3.org/1999/xlink" x="0px" y="0px"
	 width="183.153px" height="29.972px" viewBox="0 0 183.153 29.972" enable-background="new 0 0 183.153 29.972"
	 xml:space="preserve">
<path opacity="0.5" fill="#15BFBC" d="M11.968,0c-5.04,0.259-9.513,3.575-11.22,8.319l6.965,1.836
	c0.821-1.64,2.434-2.78,4.268-2.993V0.352L11.968,0z"/>
<path fill="#15BFBC" d="M13.22,0.005v7.154c2.722,0.311,4.847,2.615,4.847,5.42c0,3.015-2.453,5.467-5.467,5.467
	s-5.467-2.452-5.467-5.467c0-0.421,0.049-0.838,0.143-1.243L1.13,9.702L0.387,9.506C0.226,10.172,0,11.331,0,12.574
	c0,6.069,4.324,11.124,10.047,12.309v5.089h0.604v-0.025l4.472-5.027c5.743-1.172,10.077-6.262,10.077-12.345
	C25.199,5.836,19.878,0.333,13.22,0.005z"/>
<g>
	<path fill="#FFFFFF" d="M45.835,8.911h-1.856L43.518,6.32c-0.374-0.315-0.872-0.577-1.495-0.785
		c-0.623-0.207-1.345-0.312-2.167-0.312c-1.304,0-2.304,0.276-3.002,0.828c-0.697,0.553-1.046,1.273-1.046,2.162
		c0,0.788,0.355,1.447,1.065,1.974c0.71,0.528,1.858,0.99,3.444,1.39c1.91,0.473,3.361,1.17,4.354,2.092s1.489,2.064,1.489,3.426
		c0,1.462-0.596,2.637-1.788,3.525c-1.192,0.889-2.751,1.333-4.677,1.333c-1.396,0-2.635-0.229-3.718-0.686
		c-1.084-0.457-1.966-1.055-2.647-1.794v-3.375h1.843l0.474,2.604c0.473,0.39,1.038,0.71,1.694,0.959
		c0.656,0.249,1.441,0.373,2.354,0.373c1.237,0,2.215-0.262,2.933-0.784c0.718-0.523,1.078-1.233,1.078-2.13
		c0-0.831-0.312-1.526-0.934-2.087c-0.623-0.561-1.723-1.031-3.301-1.414c-1.918-0.456-3.417-1.129-4.497-2.018
		s-1.619-2.006-1.619-3.351c0-1.42,0.602-2.602,1.806-3.544s2.77-1.414,4.696-1.414c1.271,0,2.427,0.218,3.469,0.654
		c1.042,0.436,1.879,0.965,2.51,1.588V8.911z"/>
	<path fill="#FFFFFF" d="M48.165,25.291l2.03-0.349V10.145l-2.03-0.349V8.214H52.3l0.224,1.644c0.449-0.614,0.995-1.083,1.638-1.407
		s1.389-0.486,2.236-0.486c1.669,0,2.967,0.662,3.893,1.987c0.926,1.324,1.389,3.074,1.389,5.25v0.262
		c0,1.943-0.465,3.511-1.396,4.703c-0.93,1.19-2.213,1.787-3.849,1.787c-0.831,0-1.559-0.14-2.186-0.417
		c-0.627-0.279-1.161-0.692-1.601-1.24v4.646l2.03,0.349v1.582h-6.515V25.291z M59.213,15.201c0-1.536-0.299-2.794-0.897-3.774
		c-0.598-0.979-1.486-1.47-2.666-1.47c-0.698,0-1.295,0.158-1.794,0.474c-0.498,0.315-0.901,0.747-1.208,1.296v6.564
		c0.307,0.556,0.708,0.986,1.202,1.288c0.494,0.304,1.103,0.455,1.825,0.455c1.163,0,2.042-0.423,2.641-1.271
		c0.598-0.847,0.897-1.947,0.897-3.301V15.201z"/>
	<path fill="#FFFFFF" d="M70.062,21.953c-1.876,0-3.369-0.625-4.478-1.875c-1.108-1.249-1.663-2.871-1.663-4.864v-0.548
		c0-1.919,0.571-3.516,1.712-4.789c1.142-1.275,2.494-1.913,4.055-1.913c1.81,0,3.182,0.549,4.117,1.645
		c0.934,1.097,1.401,2.558,1.401,4.385v1.532h-8.744l-0.038,0.062c0.025,1.295,0.353,2.36,0.984,3.194
		c0.631,0.835,1.515,1.252,2.653,1.252c0.831,0,1.559-0.118,2.187-0.355c0.626-0.235,1.168-0.562,1.625-0.977l0.959,1.594
		c-0.482,0.465-1.12,0.857-1.913,1.177C72.128,21.793,71.175,21.953,70.062,21.953z M69.689,9.896c-0.822,0-1.524,0.347-2.105,1.039
		c-0.582,0.694-0.938,1.563-1.071,2.61l0.025,0.062h6.216v-0.324c0-0.963-0.258-1.769-0.772-2.417
		C71.466,10.219,70.702,9.896,69.689,9.896z"/>
	<path fill="#FFFFFF" d="M86.418,21.691c-0.075-0.365-0.133-0.693-0.175-0.984c-0.042-0.291-0.07-0.581-0.087-0.872
		c-0.474,0.606-1.065,1.111-1.775,1.514c-0.71,0.403-1.468,0.604-2.273,0.604c-1.403,0-2.471-0.343-3.201-1.028
		c-0.731-0.685-1.096-1.65-1.096-2.896c0-1.279,0.517-2.265,1.55-2.959c1.035-0.692,2.452-1.04,4.254-1.04h2.528v-1.569
		c0-0.789-0.249-1.413-0.747-1.875c-0.499-0.46-1.192-0.69-2.08-0.69c-0.615,0-1.157,0.078-1.625,0.236
		c-0.47,0.157-0.85,0.374-1.14,0.647l-0.262,1.42h-1.893V9.584c0.614-0.49,1.357-0.883,2.229-1.177
		c0.872-0.296,1.819-0.443,2.84-0.443c1.528,0,2.765,0.391,3.712,1.171c0.947,0.781,1.42,1.897,1.42,3.352v6.489
		c0,0.175,0.002,0.345,0.006,0.511c0.004,0.166,0.015,0.332,0.031,0.498l0.997,0.138v1.569H86.418z M82.469,19.897
		c0.813,0,1.557-0.195,2.229-0.586c0.673-0.39,1.154-0.859,1.445-1.407v-2.217h-2.616c-1.005,0-1.8,0.232-2.385,0.697
		c-0.586,0.465-0.878,1.029-0.878,1.694c0,0.59,0.183,1.04,0.548,1.351C81.178,19.742,81.73,19.897,82.469,19.897z"/>
	<path fill="#FFFFFF" d="M91.338,3.841V2.26h4.484v11.26h1.569l2.877-3.562l-1.233-0.161V8.214h5.643v1.582l-1.644,0.323
		l-3.55,4.235l4.322,5.468l1.532,0.3v1.569h-5.593v-1.569l1.258-0.162l-3.575-4.484h-1.607v4.297l2.03,0.35v1.569h-6.515v-1.569
		l2.03-0.35V4.19L91.338,3.841z"/>
	<path fill="#FFFFFF" d="M113.087,21.953c-1.877,0-3.37-0.625-4.478-1.875c-1.109-1.249-1.663-2.871-1.663-4.864v-0.548
		c0-1.919,0.571-3.516,1.713-4.789c1.141-1.275,2.493-1.913,4.054-1.913c1.811,0,3.183,0.549,4.117,1.645
		c0.934,1.097,1.401,2.558,1.401,4.385v1.532h-8.745l-0.037,0.062c0.025,1.295,0.353,2.36,0.984,3.194
		c0.631,0.835,1.516,1.252,2.653,1.252c0.83,0,1.559-0.118,2.186-0.355c0.627-0.235,1.169-0.562,1.626-0.977l0.959,1.594
		c-0.481,0.465-1.119,0.857-1.912,1.177C115.152,21.793,114.2,21.953,113.087,21.953z M112.713,9.896
		c-0.822,0-1.523,0.347-2.105,1.039c-0.581,0.694-0.938,1.563-1.071,2.61l0.025,0.062h6.216v-0.324c0-0.963-0.257-1.769-0.772-2.417
		C114.49,10.219,113.726,9.896,112.713,9.896z"/>
	<path fill="#FFFFFF" d="M120.648,9.796V8.214h4.223l0.236,1.955c0.382-0.689,0.854-1.229,1.414-1.619
		c0.561-0.391,1.203-0.586,1.925-0.586c0.191,0,0.388,0.015,0.591,0.044c0.204,0.029,0.36,0.061,0.468,0.094l-0.324,2.279
		l-1.395-0.075c-0.647,0-1.191,0.152-1.632,0.455c-0.44,0.304-0.78,0.729-1.021,1.276v7.735l2.031,0.35v1.569h-6.515v-1.569
		l2.03-0.35v-9.628L120.648,9.796z"/>
	<path fill="#FFFFFF" d="M138.934,3.567c1.977,0,3.492,0.438,4.547,1.313c1.055,0.877,1.582,2.12,1.582,3.731
		c0,0.88-0.245,1.66-0.735,2.342c-0.49,0.681-1.191,1.217-2.105,1.606c0.988,0.324,1.7,0.852,2.137,1.582
		c0.436,0.73,0.654,1.632,0.654,2.703v1.457c0,0.557,0.07,0.968,0.211,1.233c0.142,0.266,0.374,0.424,0.698,0.474l0.598,0.074v1.607
		h-1.32c-0.955,0-1.634-0.332-2.036-0.997c-0.403-0.664-0.604-1.47-0.604-2.416V16.87c0-0.987-0.287-1.781-0.859-2.379
		c-0.573-0.598-1.342-0.896-2.305-0.896h-3.936v6.178l2.03,0.35v1.569h-6.515v-1.569l2.03-0.35V5.485l-2.03-0.349V3.567h2.03
		H138.934z M135.458,11.664h3.226c1.37,0,2.366-0.262,2.989-0.785s0.935-1.287,0.935-2.292c0-0.955-0.299-1.711-0.897-2.267
		c-0.598-0.557-1.523-0.835-2.777-0.835h-3.475V11.664z"/>
	<path fill="#FFFFFF" d="M157.257,21.691c-0.075-0.365-0.133-0.693-0.175-0.984c-0.041-0.291-0.07-0.581-0.087-0.872
		c-0.474,0.606-1.065,1.111-1.774,1.514c-0.711,0.403-1.468,0.604-2.273,0.604c-1.403,0-2.471-0.343-3.201-1.028
		c-0.731-0.685-1.097-1.65-1.097-2.896c0-1.279,0.518-2.265,1.551-2.959c1.034-0.692,2.452-1.04,4.254-1.04h2.528v-1.569
		c0-0.789-0.249-1.413-0.747-1.875c-0.498-0.46-1.191-0.69-2.08-0.69c-0.614,0-1.156,0.078-1.625,0.236
		c-0.47,0.157-0.85,0.374-1.141,0.647l-0.262,1.42h-1.893V9.584c0.614-0.49,1.357-0.883,2.229-1.177
		c0.872-0.296,1.818-0.443,2.84-0.443c1.528,0,2.766,0.391,3.712,1.171c0.946,0.781,1.42,1.897,1.42,3.352v6.489
		c0,0.175,0.002,0.345,0.006,0.511c0.005,0.166,0.015,0.332,0.031,0.498l0.997,0.138v1.569H157.257z M153.309,19.897
		c0.813,0,1.557-0.195,2.229-0.586c0.673-0.39,1.154-0.859,1.444-1.407v-2.217h-2.615c-1.005,0-1.801,0.232-2.386,0.697
		c-0.586,0.465-0.878,1.029-0.878,1.694c0,0.59,0.183,1.04,0.548,1.351C152.017,19.742,152.569,19.897,153.309,19.897z"/>
	<path fill="#FFFFFF" d="M166.799,4.962v3.252h2.553v1.818h-2.553v8.184c0,0.631,0.131,1.075,0.392,1.333
		c0.263,0.257,0.608,0.386,1.04,0.386c0.217,0,0.459-0.019,0.729-0.056c0.271-0.037,0.497-0.077,0.68-0.118l0.336,1.682
		c-0.232,0.149-0.573,0.271-1.021,0.367c-0.448,0.095-0.896,0.144-1.345,0.144c-0.997,0-1.79-0.301-2.38-0.903
		c-0.589-0.602-0.884-1.547-0.884-2.834v-8.184h-2.13V8.214h2.13V4.962H166.799z"/>
	<path fill="#FFFFFF" d="M178.009,21.953c-1.876,0-3.369-0.625-4.478-1.875c-1.109-1.249-1.663-2.871-1.663-4.864v-0.548
		c0-1.919,0.57-3.516,1.713-4.789c1.142-1.275,2.493-1.913,4.055-1.913c1.81,0,3.182,0.549,4.117,1.645
		c0.934,1.097,1.4,2.558,1.4,4.385v1.532h-8.744l-0.037,0.062c0.024,1.295,0.353,2.36,0.983,3.194
		c0.632,0.835,1.516,1.252,2.653,1.252c0.831,0,1.56-0.118,2.187-0.355c0.627-0.235,1.169-0.562,1.625-0.977l0.96,1.594
		c-0.482,0.465-1.12,0.857-1.913,1.177C180.074,21.793,179.122,21.953,178.009,21.953z M177.636,9.896
		c-0.822,0-1.524,0.347-2.105,1.039c-0.581,0.694-0.938,1.563-1.071,2.61l0.025,0.062h6.215v-0.324c0-0.963-0.257-1.769-0.771-2.417
		C179.412,10.219,178.648,9.896,177.636,9.896z"/>
</g>
</svg>
