<?xml version="1.0" encoding="utf-8"?>
<!-- Generator: Adobe Illustrator 16.0.0, SVG Export Plug-In . SVG Version: 6.00 Build 0)  -->
<!DOCTYPE svg PUBLIC "-//W3C//DTD SVG 1.1//EN" "http://www.w3.org/Graphics/SVG/1.1/DTD/svg11.dtd">
<svg version="1.1" id="Layer_1" xmlns="http://www.w3.org/2000/svg" xmlns:xlink="http://www.w3.org/1999/xlink" x="0px" y="0px"
	 width="245px" height="35.794px" viewBox="0 0 245 35.794" enable-background="new 0 0 245 35.794" xml:space="preserve">
<g>
	<g>
		<g>
			<g>
				<path fill="#FFFFFF" d="M0,0.496l3.691,0.002c2.254,0.003,3.784,0.331,4.589,0.989c0.815,0.658,1.22,1.824,1.22,3.496v14.027
					c0,1.67-0.401,2.834-1.209,3.48c-0.817,0.652-2.342,0.974-4.596,0.974H2.863v11.277L0,34.74V0.496z M2.858,3.028l0.004,17.929
					l0.765-0.005c1.138,0.005,1.901-0.23,2.286-0.701c0.382-0.471,0.575-1.539,0.575-3.191L6.484,6.933
					c0-1.657-0.192-2.723-0.579-3.193C5.529,3.264,4.766,3.03,3.628,3.028H2.858z"/>
			</g>
		</g>
		<g>
			<g>
				<path fill="#FFFFFF" d="M23.329,7.503v20.269c0,2.94-0.387,4.937-1.147,5.988c-0.77,1.048-2.132,1.577-4.101,1.573
					c-1.935,0.004-3.286-0.532-4.053-1.601c-0.767-1.07-1.147-3.06-1.147-5.97V7.493c0-2.878,0.384-4.848,1.158-5.906
					C14.812,0.53,16.17-0.004,18.121,0c1.955,0,3.309,0.53,4.069,1.58C22.946,2.635,23.329,4.608,23.329,7.503z M20.332,7.036
					c0-1.735-0.165-2.921-0.496-3.564c-0.326-0.643-0.917-0.964-1.756-0.964c-0.826-0.002-1.4,0.312-1.717,0.938
					c-0.329,0.629-0.489,1.823-0.489,3.587v21.194c0,1.781,0.167,2.982,0.495,3.603c0.335,0.616,0.915,0.928,1.752,0.926
					c0.831,0.005,1.405-0.308,1.729-0.921c0.321-0.622,0.482-1.819,0.482-3.603V7.036z"/>
			</g>
		</g>
		<g>
			<g>
				<path fill="#FFFFFF" d="M28.371,0.521h3.039v34.246l-3.039-0.002V0.521z"/>
			</g>
		</g>
		<g>
			<g>
				<path fill="#FFFFFF" d="M36.479,0.525l3.911,0.002l4.753,32.207h0.05L44.763,0.532l2.594,0.002v34.249l-3.965-0.012
					L38.685,3.011l-0.091,0.002l0.407,31.764l-2.521-0.005V0.525z"/>
			</g>
		</g>
		<g>
			<g>
				<path fill="#FFFFFF" d="M50.303,0.539l9.748,0.007V3.26h-3.427v31.527h-2.896L53.721,3.255h-3.418V0.539z"/>
			</g>
		</g>
		<g>
			<g>
				<path fill="#FFFFFF" d="M63.047,0.553h2.858v31.528l5.158,0.002v2.718l-8.017-0.007V0.553z"/>
			</g>
		</g>
		<g>
			<g>
				<path fill="#FFFFFF" d="M73.833,0.558l7.924,0.004v2.721l-5.065-0.003l0.005,16.508l4.841,0.007v2.691l-4.841-0.005
					l-0.005,9.606l5.201,0.005v2.716l-8.06-0.004V0.558z"/>
			</g>
		</g>
		<g>
			<g>
				<path fill="#FFFFFF" d="M94.679,6.007v3.272h-2.991V6.098c0-1.345-0.132-2.272-0.403-2.774
					c-0.271-0.503-0.754-0.754-1.446-0.757c-0.658,0-1.122,0.285-1.396,0.847c-0.269,0.566-0.402,1.566-0.402,3.006v1.67
					c0,0.697,0.022,1.802,0.141,2.537c0.186,1.104,0.536,1.852,0.905,2.578l3.754,8.153c0.709,1.313,1.156,2.384,1.436,3.397
					c0.291,1.014,0.404,1.761,0.404,2.845v0.23c0,2.972-0.359,4.978-1.086,6.014c-0.729,1.036-2.027,1.553-3.886,1.553
					c-1.815-0.005-3.085-0.421-3.798-1.257c-0.711-0.835-1.065-2.414-1.065-4.731v-3.813l3.012,0.004v3.688
					c0,1.394,0.139,2.34,0.407,2.838c0.27,0.493,0.77,0.742,1.487,0.739c0.735,0.003,1.245-0.278,1.517-0.844
					c0.28-0.565,0.421-1.806,0.421-3.726v-0.278c0-0.88-0.113-1.45-0.222-2.17c-0.12-0.814-0.401-1.594-0.7-2.195l-3.965-8.687
					c-0.647-1.246-1.055-2.213-1.347-3.091c-0.289-0.888-0.366-2.042-0.366-2.693V7.184c0-2.661,0.357-4.513,1.065-5.561
					c0.72-1.043,1.942-1.563,3.685-1.563c1.831,0,3.094,0.412,3.798,1.235C94.337,2.114,94.679,3.685,94.679,6.007z"/>
			</g>
		</g>
		<g>
			<g>
				<path fill="#FFFFFF" d="M107.574,6.019v3.27h-2.991V6.106c0-1.345-0.134-2.268-0.405-2.774
					c-0.271-0.503-0.754-0.756-1.444-0.756c-0.663,0-1.127,0.28-1.398,0.844c-0.263,0.568-0.402,1.568-0.402,3.008v1.67
					c0,0.697,0.024,1.802,0.145,2.54c0.184,1.102,0.536,1.849,0.902,2.575l3.755,8.156c0.711,1.308,1.149,2.379,1.438,3.393
					c0.285,1.012,0.407,1.765,0.407,2.849v0.231c0,2.967-0.367,4.97-1.096,6.011c-0.727,1.037-2.021,1.553-3.886,1.551
					c-1.814,0-3.075-0.419-3.793-1.257c-0.713-0.837-1.063-2.414-1.063-4.734v-3.809l3.01,0.002v3.689
					c0,1.396,0.136,2.34,0.41,2.833c0.267,0.498,0.763,0.745,1.482,0.742c0.735,0.003,1.244-0.278,1.521-0.842
					c0.276-0.565,0.419-1.806,0.419-3.725v-0.281c0-0.88-0.118-1.448-0.223-2.166c-0.124-0.816-0.404-1.595-0.699-2.197
					l-3.967-8.686c-0.647-1.25-1.05-2.214-1.345-3.096c-0.294-0.883-0.364-2.037-0.364-2.689V7.192c0-2.663,0.351-4.517,1.07-5.562
					c0.709-1.041,1.938-1.562,3.678-1.562c1.831,0,3.092,0.412,3.793,1.235C107.224,2.123,107.574,3.694,107.574,6.019z"/>
			</g>
		</g>
		<g>
			<g>
				<path fill="#FFFFFF" d="M131.304,6.075V9.35l-3.015-0.005v-3.18c0-1.33-0.143-2.252-0.416-2.763
					c-0.276-0.51-0.774-0.768-1.479-0.768c-0.646,0-1.091,0.292-1.351,0.869c-0.256,0.579-0.383,1.799-0.383,3.657v21.196
					c0,1.901,0.136,3.142,0.405,3.717c0.271,0.57,0.768,0.855,1.484,0.855c0.613,0.004,1.063-0.265,1.329-0.806
					c0.267-0.544,0.409-1.465,0.409-2.766v-3.689h3.015v3.812c0,2.335-0.351,3.917-1.055,4.743c-0.706,0.828-1.971,1.24-3.784,1.24
					c-1.79-0.004-3.034-0.538-3.736-1.606c-0.713-1.066-1.063-3.058-1.063-5.966V7.623c0-2.895,0.351-4.87,1.063-5.921
					c0.702-1.05,1.946-1.575,3.736-1.572c1.833,0.002,3.094,0.409,3.793,1.232C130.953,2.183,131.304,3.755,131.304,6.075z"/>
			</g>
		</g>
		<g>
			<g>
				<path fill="#FFFFFF" d="M145.355,7.641v20.273c0,2.938-0.387,4.934-1.149,5.983c-0.763,1.055-2.13,1.58-4.094,1.575
					c-1.939,0.003-3.289-0.536-4.054-1.604c-0.771-1.068-1.152-3.057-1.152-5.965V7.636c0-2.878,0.388-4.848,1.157-5.911
					c0.775-1.057,2.136-1.589,4.092-1.589c1.946,0.005,3.306,0.534,4.06,1.585C144.976,2.772,145.355,4.749,145.355,7.641z
					 M142.361,7.179c0-1.737-0.163-2.924-0.498-3.566c-0.332-0.643-0.914-0.964-1.758-0.964c-0.822-0.005-1.396,0.312-1.718,0.937
					c-0.326,0.629-0.487,1.824-0.487,3.585l0.005,21.201c0,1.779,0.161,2.979,0.496,3.599c0.328,0.615,0.912,0.926,1.754,0.928
					c0.823,0,1.398-0.308,1.72-0.928c0.323-0.62,0.486-1.817,0.486-3.596V7.179z"/>
			</g>
		</g>
		<g>
			<g>
				<path fill="#FFFFFF" d="M150.397,0.657l4.368,0.004c2.25,0.005,3.777,0.328,4.574,0.982c0.792,0.647,1.188,1.814,1.188,3.503
					l0.01,11.94c0,1.422-0.268,2.431-0.79,3.015c-0.525,0.589-1.455,0.944-2.793,1.068c1.426,0.095,2.415,0.435,2.974,1.022
					c0.557,0.589,0.829,1.609,0.829,3.064v9.655l-3.04-0.005l0.007-8.609c0-1.604-0.227-2.652-0.67-3.132
					c-0.441-0.482-1.349-0.72-2.736-0.722l-1.052,0.002l-0.01,12.461l-2.858-0.007V0.657z M153.256,3.191l0.01,16.697h1.009
					c1.306,0,2.175-0.235,2.614-0.706c0.433-0.471,0.647-1.519,0.647-3.146V7.096c0-1.642-0.218-2.7-0.656-3.183
					c-0.431-0.478-1.302-0.72-2.605-0.72L153.256,3.191z"/>
			</g>
		</g>
		<g>
			<g>
				<path fill="#FFFFFF" d="M165.753,0.67l3.696,0.005c2.249,0,3.779,0.33,4.594,0.991c0.806,0.656,1.209,1.822,1.209,3.494
					l0.009,14.027c0,1.67-0.407,2.833-1.215,3.48c-0.817,0.649-2.348,0.976-4.59,0.974h-0.838l-0.004,11.274h-2.861V0.67z
					 M168.614,3.205l0.004,17.929h0.763c1.141,0,1.908-0.235,2.284-0.706c0.387-0.471,0.579-1.537,0.579-3.191l-0.002-10.13
					c0-1.652-0.199-2.72-0.577-3.193c-0.385-0.468-1.147-0.708-2.288-0.708H168.614z"/>
			</g>
		</g>
		<g>
			<g>
				<path fill="#FFFFFF" d="M172.172,31.162l3.18,0.002l-0.007,3.762l-3.173-0.005V31.162z"/>
			</g>
		</g>
	</g>
</g>
<path fill="#FFFFFF" d="M217.297,31.696c0.163,0.074,0.333,0.151,0.471,0.219c0.12,0.06,0.303,0.125,0.516,0.195
	c-0.007-0.005-0.007-0.007-0.014-0.01C218.087,32.015,217.723,31.865,217.297,31.696z"/>
<path fill="#FFFFFF" d="M243.567,22.063c0,0-8.557-3.752-15.311,2.793c-0.222,0.175-0.445,0.342-0.667,0.496
	c-6.926,4.164-11.232-1.654-12.212-2.673c1.751-3.932,1.978-7.521,2.01-8.362l-2.729-0.242v0.296
	c-0.003,0.065-0.295,6.946-5.271,12.545l0.034,0.021c0.672,0.235,1.776,0.639,2.693,1.019c0.294-0.357,0.581-0.716,0.842-1.08
	c0.378-0.323,1.428-0.998,2.888,0.043c0.172,0.125,0.312,0.199,0.421,0.242c7.608,5.079,14.979,0.188,14.979,0.188
	s4.823-3.277,9.729,0.133L245,26.009L243.567,22.063z"/>
<path fill="#FFFFFF" d="M219.39,14.367c0.412,0,0.795-0.009,1.159-0.025l-0.83-1.586l-0.446-2.931l-2.154-2.037l-1.379-2.628
	l-2.697-1.227l-2.154-2.036l-2.951-0.285l-2.7-1.228l-2.883,0.688l-2.951-0.283l-2.506,1.591l-2.883,0.688l-1.852,2.315
	l-2.503,1.586l-1,2.793l-1.852,2.315l-0.041,2.962l-1,2.793l0.928,2.817l-0.041,2.965l1.79,2.365l0.924,2.815l2.46,1.652
	l1.793,2.364l2.862,0.768l2.46,1.654l2.958-0.206l2.865,0.765l2.729-1.151l2.958-0.206l2.206-1.979l2.732-1.156l0.353-0.629
	c-0.359-0.677-1.029-1.562-2.286-2.152c-0.224-0.104-0.706-0.299-1.355-0.548c0.297-0.364,0.586-0.729,0.854-1.098
	c0.378-0.323,1.428-0.998,2.888,0.043c0.172,0.125,0.312,0.199,0.421,0.242c0.464,0.311,0.928,0.582,1.392,0.822l1.39-1.247
	l0.146-0.812c-2.028-1.064-3.329-2.738-3.813-3.243c1.751-3.932,1.978-7.521,2.01-8.362
	C218.027,14.349,218.693,14.367,219.39,14.367z M214.658,14.371c-0.003,0.065-0.295,6.946-5.271,12.545l0.108,0.07
	c-3.527-1.315-8.138-2.983-8.787-3.236c-2.558-0.996-4.741-2.931-5.354-3.54c-0.521-0.521-1.927-5.458-1.927-5.458l5.713-0.412
	l2.116-1.288l5.078-0.405c-0.002-0.05-0.016-0.09-0.016-0.14c0-1.07,0.869-1.938,1.944-1.938c1.067,0,1.939,0.867,1.939,1.938
	c0,0.217-0.046,0.423-0.109,0.615c1.053,0.326,2.585,0.701,4.565,0.953V14.371z M216.871,11.183
	c-2.491-4.662-7.398-7.833-13.054-7.847c-8.177,0.019-14.794,6.632-14.811,14.809c0.017,8.181,6.634,14.794,14.811,14.808
	c2.485-0.005,4.822-0.627,6.878-1.709l0.459,0.251c-2.175,1.2-4.676,1.888-7.337,1.888c-8.417,0-15.238-6.821-15.238-15.237
	c0-8.413,6.821-15.233,15.238-15.233c5.916,0,11.033,3.381,13.554,8.308L216.871,11.183z"/>
</svg>
